<?xml version="1.0" standalone="no"?><svg xmlns="http://www.w3.org/2000/svg" viewBox="0 0 1440 320"><path fill="#f0ffdb" fill-opacity="1" d="M0,320L30,309.3C60,299,120,277,180,224C240,171,300,85,360,74.7C420,64,480,128,540,149.3C600,171,660,149,720,128C780,107,840,85,900,106.7C960,128,1020,192,1080,229.3C1140,267,1200,277,1260,234.7C1320,192,1380,96,1410,48L1440,0L1440,320L1410,320C1380,320,1320,320,1260,320C1200,320,1140,320,1080,320C1020,320,960,320,900,320C840,320,780,320,720,320C660,320,600,320,540,320C480,320,420,320,360,320C300,320,240,320,180,320C120,320,60,320,30,320L0,320Z"></path></svg>