<?xml version="1.0" standalone="no"?><svg xmlns="http://www.w3.org/2000/svg" viewBox="0 0 1440 320"><path fill="#80ffdb" fill-opacity="1" d="M0,32L26.7,74.7C53.3,117,107,203,160,208C213.3,213,267,139,320,144C373.3,149,427,235,480,234.7C533.3,235,587,149,640,138.7C693.3,128,747,192,800,224C853.3,256,907,256,960,256C1013.3,256,1067,256,1120,224C1173.3,192,1227,128,1280,133.3C1333.3,139,1387,213,1413,250.7L1440,288L1440,0L1413.3,0C1386.7,0,1333,0,1280,0C1226.7,0,1173,0,1120,0C1066.7,0,1013,0,960,0C906.7,0,853,0,800,0C746.7,0,693,0,640,0C586.7,0,533,0,480,0C426.7,0,373,0,320,0C266.7,0,213,0,160,0C106.7,0,53,0,27,0L0,0Z"></path></svg>